# xmcd
#
# Track frame offsets: 
#        150
#        12253
#        28441
#        43046
#        55902
#        68312
#        81831
#        98292
#        109429
#        121655
#        134276
#        149466
#
# Disc length: 2206 seconds
#
# Revision: 0
# Processed by: cddbd v1.5.2PL0 Copyright (c) Steve Scherf et al.
# Submitted via: ExactAudioCopy v0.95b4
#
DISCID=9c089c0c
DTITLE=Pop Wagner and the Twin City Playboys - Honky Tonk Ranch
DYEAR=2008
DGENRE=
TTITLE0=Take Me Back to Tulsa
TTITLE1=My Old Friend Whiskey
TTITLE2=Fraulein
TTITLE3=Keeper of My  Heart
TTITLE4=J'ai Passe devant Ta Porte
TTITLE5=Oklahoma Hills
TTITLE6=Cleo's Gator
TTITLE7=Red Wing
TTITLE8=Old Fashioned Cowboy
TTITLE9='Tit Galop pour Mamou
TTITLE10=Move It on Over
TTITLE11=Westphalia Waltz
EXTD=
EXTT0=
EXTT1=
EXTT2=
EXTT3=
EXTT4=
EXTT5=
EXTT6=
EXTT7=
EXTT8=
EXTT9=
EXTT10=
EXTT11=
PLAYORDER=
